<?xml version="1.0" encoding="utf-8"?>
<!-- Generator: Adobe Illustrator 24.0.1, SVG Export Plug-In . SVG Version: 6.00 Build 0)  -->
<svg version="1.1" id="圖層_1" xmlns="http://www.w3.org/2000/svg" xmlns:xlink="http://www.w3.org/1999/xlink" x="0px" y="0px"
	 viewBox="0 0 386 364" style="enable-background:new 0 0 386 364;" xml:space="preserve">
<style type="text/css">
	.st0{fill:url(#SVGID_1_);stroke:#00FFFF;stroke-width:3;stroke-linejoin:round;stroke-miterlimit:10;}
	.st1{fill:url(#SVGID_2_);stroke:#00FFFF;stroke-width:3;stroke-linejoin:round;stroke-miterlimit:10;}
</style>
<g>
	
		<linearGradient id="SVGID_1_" gradientUnits="userSpaceOnUse" x1="150.4391" y1="418.3956" x2="346.0913" y2="61.526" gradientTransform="matrix(0.9741 0.2262 -0.2262 0.9741 45.4116 -38.4674)">
		<stop  offset="0" style="stop-color:#CCE0F4"/>
		<stop  offset="6.405089e-02" style="stop-color:#C3DCF2"/>
		<stop  offset="0.1706" style="stop-color:#A9D2EE"/>
		<stop  offset="0.3066" style="stop-color:#80C2E7"/>
		<stop  offset="0.4649" style="stop-color:#47ACDE"/>
		<stop  offset="0.5674" style="stop-color:#1E9CD7"/>
		<stop  offset="0.8652" style="stop-color:#0075BE"/>
		<stop  offset="0.9944" style="stop-color:#005B97"/>
	</linearGradient>
	<path class="st0" d="M150.8,321.3c-13.5-3.1-27-6.4-40.5-9.4c22.2,29,53.6,55.9,89.5,41.4c8.7-3.5,16.7-8.7,24.2-15
		C199.6,332.6,175.2,326.9,150.8,321.3z"/>
	
		<linearGradient id="SVGID_2_" gradientUnits="userSpaceOnUse" x1="76.9324" y1="378.0959" x2="272.5846" y2="21.2263" gradientTransform="matrix(0.9741 0.2262 -0.2262 0.9741 45.4116 -38.4674)">
		<stop  offset="0" style="stop-color:#CCE0F4"/>
		<stop  offset="6.405089e-02" style="stop-color:#C3DCF2"/>
		<stop  offset="0.1706" style="stop-color:#A9D2EE"/>
		<stop  offset="0.3066" style="stop-color:#80C2E7"/>
		<stop  offset="0.4649" style="stop-color:#47ACDE"/>
		<stop  offset="0.5674" style="stop-color:#1E9CD7"/>
		<stop  offset="0.8652" style="stop-color:#0075BE"/>
		<stop  offset="0.9944" style="stop-color:#005B97"/>
	</linearGradient>
	<path class="st1" d="M378.6,177.6c-1.8-10.7-15.4-14.3-24.7-11.7c-16,4.6-27.9,18.9-41.6,27.8c-10.1,6.5-17.7,15-30.4,9.8
		c-21.1-8.6,5.4-32.1,11.9-38.5c13.1-12.8,26.6-25.2,38.9-38.8c8.7-9.5,24.9-23.9,24.4-37.8c-0.3-10.8-11-18.7-21.2-19.5
		c-15.6-1.1-22.9,14.3-28.9,26c-4.8,9.3-10.1,18.1-16.4,26.4c-9,11.7-21.5,27.4-35,34c-12,5.8-14.7-7.9-13.4-16.7
		c1.8-12.5,9.2-23.3,15.9-33.8c7.4-11.5,15.2-22.8,21.9-34.7c7.9-14.1,25.1-32.8,8.9-47.4c-25.7-23.2-43.6,27-51.6,42.7
		c-7.8,15.3-12.9,31.6-20,47.2c-3.4,7.4-11.1,24.5-21.9,20.1c-18.7-7.6-10.2-34.3-7-48.9c4.5-20.4,13.3-44.1,7.5-64.9
		c-3-11-14.6-15.5-24.9-10.6c-7.5,3.6-10.9,11.6-12.7,19.2c-4.3,18-2.1,36.6-2.9,54.9c-1.3,28.1-4.7,57.7-9.8,85.6
		c-2.4,13.4-7.2,28.8-18.8,37.3c-13.3,9.6-35.6,7.7-42.5-8.4c-4.3-10-4.3-21-10.2-30.4c-9.8-15.6-27.8-27-46.8-25.6
		c-11.3,0.8-21.4,7.7-20.8,19.9c0.8,16.2,18.5,28.6,30.6,37.6c29,21.5,36.3,55.5,53.9,85c0.9,1.5,1.9,3.1,2.9,4.8
		c6.5-0.3,13-0.8,19.5-1.5c33.4-3.7,65.4-11.3,94.2-26.2c7.8-4.1,14.6-9.6,21.9-14.5c-0.3-0.6-0.6-1.3-1-1.9
		c-6.1,6.7-13.4,3.4-20.6,1.7c-22.4-5.2-44.7-10.3-67.1-15.5c-1.6-0.4-3.1-0.7-5.6-1.3c3.8-4.9,6.8-9.5,10.6-13.4
		c3.8-3.8,9.3-4.4,15-3.1c6.2,1.4,12.3,2.8,18.5,4.3c20.5,4.8,41,9.5,61.4,14.3c3.2,0.8,5,0.2,6.8-2c8.6-10.9,11.9-22.8,7.3-36.4
		c-0.2-0.5-0.3-0.9-0.4-1.4c0-0.2,0.2-0.4,0.4-0.8c4,1.3,5.6,4.3,6.6,7.5c3.1,9.3,1.4,18.1-2.7,26.4c-8.3,16.7-22.4,28.9-39.1,38.5
		c-37.9,21.8-78.9,31.8-122.7,30.2c2.4,3.7,5,7.6,7.7,11.5c20.9,0.2,41.7-2.2,62.4-6.5c28.1-5.8,54.9-14.2,78.2-29.1
		c6.8-4.4,13.3-9.4,18.9-15c8.7-8.8,16.6-18.3,11.5-32c6.9,9,6.8,18,2.3,27c-5.9,12-16.4,20.4-28.2,27.6
		c-23.5,14.3-49.9,22.6-78.3,26.9c-0.8,0.1-1.6,0.3-2.3,0.3c8.5,1.7,17.1,3.3,25.5,5.2c15.9,3.6,31.7,7.3,47.6,11
		c14.4-17,26.4-36.7,37.3-52.9c10-15,18.7-28.8,35.5-36.7c18.3-8.6,37.4-15.5,52.6-29.5C373.6,195.2,380.1,186,378.6,177.6z"/>
</g>
</svg>
